<?xml version="1.0" encoding="utf-8"?>
<!-- Generator: Adobe Illustrator 16.0.0, SVG Export Plug-In . SVG Version: 6.00 Build 0)  -->
<!DOCTYPE svg PUBLIC "-//W3C//DTD SVG 1.1//EN" "http://www.w3.org/Graphics/SVG/1.1/DTD/svg11.dtd">
<svg version="1.1" id="Layer_1" xmlns="http://www.w3.org/2000/svg" xmlns:xlink="http://www.w3.org/1999/xlink" x="0px" y="0px"
	 width="876.602px" height="1247.392px" viewBox="0 0 876.602 1247.392" enable-background="new 0 0 876.602 1247.392"
	 xml:space="preserve">
<g>
	<rect x="416.531" y="802.713" fill="#9C4B06" width="41.735" height="44.39"/>
	<rect x="374.74" y="847.103" fill="#9C4B06" width="41.791" height="44.442"/>
	<rect x="374.74" y="802.713" fill="#9C4B06" width="41.791" height="44.39"/>
	<rect x="374.74" y="757.696" fill="#9C4B06" width="41.791" height="45.017"/>
	<rect x="333.002" y="891.545" fill="#9C4B06" width="41.738" height="44.387"/>
	<rect x="333.002" y="847.103" fill="#9C4B06" width="41.738" height="44.442"/>
	<rect x="333.002" y="757.696" fill="#9C4B06" width="41.738" height="45.017"/>
	<rect x="291.211" y="891.545" fill="#9C4B06" width="41.791" height="44.387"/>
	<rect x="291.211" y="713.31" fill="#9C4B06" width="41.791" height="44.387"/>
	<rect x="249.476" y="891.545" fill="#9C4B06" width="41.735" height="44.387"/>
	<rect x="249.476" y="847.103" fill="#9C4B06" width="41.735" height="44.442"/>
	<rect x="249.476" y="757.696" fill="#9C4B06" width="41.735" height="45.017"/>
	<rect x="249.476" y="713.31" fill="#9C4B06" width="41.735" height="44.387"/>
	<rect x="207.682" y="891.545" fill="#9C4B06" width="41.794" height="44.387"/>
	<polygon fill="#FFFCFC" points="333.002,757.696 291.211,757.696 291.211,802.713 249.476,802.713 249.476,757.696 
		207.682,757.696 207.682,802.713 207.682,847.103 207.682,891.545 249.476,891.545 249.476,847.103 291.211,847.103 
		291.211,891.545 333.002,891.545 333.002,847.103 374.74,847.103 374.74,802.713 333.002,802.713 	"/>
	<rect x="207.682" y="713.31" fill="#9C4B06" width="41.794" height="44.387"/>
	<rect x="165.6" y="891.545" fill="#9C4B06" width="42.082" height="44.387"/>
	<rect x="165.6" y="847.103" fill="#9C4B06" width="42.082" height="44.442"/>
	<rect x="165.6" y="713.31" fill="#9C4B06" width="42.082" height="44.387"/>
	<g>
		<polygon fill="#277543" points="667.463,980.321 625.673,980.321 625.673,1024.76 583.934,1024.76 583.934,980.321 
			625.673,980.321 625.673,935.932 625.673,891.545 625.673,847.103 625.673,802.713 667.463,802.713 667.463,757.696 
			667.463,713.31 667.463,668.868 625.673,668.868 625.673,624.478 667.463,624.478 667.463,580.091 625.673,580.091 
			625.673,535.649 625.673,491.259 583.934,491.259 542.144,491.259 500.061,491.259 458.267,491.259 416.531,491.259 
			416.531,446.243 374.74,446.243 333.002,446.243 291.211,446.243 249.476,446.243 207.682,446.243 165.6,446.243 165.6,491.259 
			123.809,491.259 123.809,535.649 82.073,535.649 82.073,580.091 82.073,624.478 123.809,624.478 123.809,580.091 165.6,580.091 
			207.682,580.091 249.476,580.091 291.211,580.091 291.211,624.478 333.002,624.478 333.002,668.868 374.74,668.868 374.74,713.31 
			333.002,713.31 333.002,757.696 374.74,757.696 416.531,757.696 416.531,802.713 458.267,802.713 458.267,757.696 458.267,713.31 
			416.531,713.31 416.531,668.868 416.531,624.478 416.531,580.091 458.267,580.091 500.061,580.091 542.144,580.091 
			583.934,580.091 583.934,624.478 583.934,668.868 583.934,713.31 583.934,757.696 583.934,802.713 583.934,847.103 
			542.144,847.103 500.061,847.103 458.267,847.103 416.531,847.103 416.531,891.545 374.74,891.545 374.74,935.932 
			333.002,935.932 291.211,935.932 291.211,980.321 333.002,980.321 333.002,1024.76 374.74,1024.76 374.74,1069.15 
			416.531,1069.15 458.267,1069.15 500.061,1069.15 500.061,1114.166 542.144,1114.166 583.934,1114.166 625.673,1114.166 
			667.463,1114.166 709.199,1114.166 709.199,1069.15 709.199,1024.76 709.199,980.321 		"/>
		<polygon fill="#277543" points="500.061,757.696 500.061,802.713 542.144,802.713 542.144,757.696 542.144,713.31 500.061,713.31 
					"/>
		<polygon fill="#277543" points="542.144,624.478 500.061,624.478 458.267,624.478 458.267,668.868 500.061,668.868 
			542.144,668.868 		"/>
		<polygon fill="#277543" points="374.74,179.809 374.74,134.789 333.002,134.789 333.002,90.402 374.74,90.402 374.74,134.789 
			416.531,134.789 458.267,134.789 458.267,179.809 500.061,179.809 542.144,179.809 583.934,179.809 583.934,134.789 
			542.144,134.789 542.144,90.402 542.144,45.96 500.061,45.96 458.267,45.96 416.531,45.96 374.74,45.96 333.002,45.96 
			291.211,45.96 249.476,45.96 249.476,90.402 249.476,134.789 291.211,134.789 291.211,179.809 333.002,179.809 		"/>
		<polygon fill="#277543" points="291.211,1069.15 291.211,1024.76 249.476,1024.76 207.682,1024.76 207.682,980.321 165.6,980.321 
			123.809,980.321 123.809,1024.76 123.809,1069.15 123.809,1114.166 123.809,1158.557 165.6,1158.557 207.682,1158.557 
			249.476,1158.557 291.211,1158.557 291.211,1114.166 333.002,1114.166 374.74,1114.166 374.74,1069.15 333.002,1069.15 		"/>
		<polygon fill="#277543" points="249.476,224.195 249.476,268.638 291.211,268.638 291.211,224.195 291.211,179.809 
			249.476,179.809 207.682,179.809 207.682,224.195 		"/>
		<rect x="165.6" y="134.789" fill="#277543" width="42.082" height="45.02"/>
		<rect x="123.809" y="224.195" fill="#277543" width="41.791" height="44.442"/>
	</g>
	<rect x="82.073" y="134.789" fill="#343434" width="41.735" height="45.02"/>
	<g>
		<polygon fill="#DBDBDB" points="792.725,980.321 792.725,1024.76 792.725,1069.15 834.52,1069.15 834.52,1024.76 834.52,980.321 
					"/>
		<rect x="583.934" y="401.856" fill="#DBDBDB" width="41.739" height="44.387"/>
		<rect x="542.144" y="446.243" fill="#DBDBDB" width="41.79" height="45.017"/>
		<polygon fill="#DBDBDB" points="542.144,357.414 500.061,357.414 500.061,401.856 542.144,401.856 583.934,401.856 
			583.934,357.414 		"/>
		<polygon fill="#DBDBDB" points="416.531,446.243 416.531,491.259 458.267,491.259 500.061,491.259 500.061,446.243 
			458.267,446.243 		"/>
		<polygon fill="#DBDBDB" points="458.267,401.856 458.267,357.414 416.531,357.414 374.74,357.414 374.74,401.856 416.531,401.856 
					"/>
		<rect x="333.002" y="401.856" fill="#DBDBDB" width="41.738" height="44.387"/>
		<rect x="291.211" y="357.414" fill="#DBDBDB" width="41.791" height="44.442"/>
		<polygon fill="#DBDBDB" points="40.279,1069.15 40.279,1114.166 82.073,1114.166 82.073,1069.15 82.073,1024.76 40.279,1024.76 		
			"/>
	</g>
	<g>
		<polygon fill="#FECB7C" points="709.199,134.789 709.199,90.402 667.463,90.402 667.463,134.789 625.673,134.789 625.673,179.809 
			625.673,224.195 667.463,224.195 709.199,224.195 709.199,268.638 750.993,268.638 750.993,224.195 750.993,179.809 
			750.993,134.789 		"/>
		<polygon fill="#FECB7C" points="500.061,268.638 458.267,268.638 458.267,224.195 416.531,224.195 374.74,224.195 
			333.002,224.195 333.002,268.638 333.002,313.024 374.74,313.024 416.531,313.024 458.267,313.024 500.061,313.024 
			542.144,313.024 542.144,268.638 542.144,224.195 500.061,224.195 		"/>
		<polygon fill="#FECB7C" points="249.476,401.856 207.682,401.856 207.682,446.243 249.476,446.243 291.211,446.243 
			333.002,446.243 333.002,401.856 291.211,401.856 		"/>
		<polygon fill="#FECB7C" points="165.6,713.31 123.809,713.31 82.073,713.31 82.073,757.696 40.279,757.696 40.279,802.713 
			40.279,847.103 82.073,847.103 82.073,891.545 123.809,891.545 123.809,935.932 165.6,935.932 165.6,891.545 165.6,847.103 
			207.682,847.103 207.682,802.713 207.682,757.696 165.6,757.696 		"/>
	</g>
	<g>
		<polygon fill="#E7F432" points="709,269 709,224 667.463,224 626,224 626,268.638 626,313.024 626,357.414 626,401.856 
			626,446.243 626,491.259 626,535.649 626,580 667,580 667,624 626,624 626,669 667,669 667,713 709,713 709,669 751,669 
			751,624.478 751,580.091 751,535.649 751,491.259 751,446.243 751,401.856 751,357.414 751,313.024 751,269 		"/>
		<polygon fill="#E7F432" points="625.673,935.932 625.673,980.321 667.463,980.321 709.199,980.321 709.199,935.932 
			667.463,935.932 		"/>
		<rect x="583.934" y="980.321" fill="#E7F432" width="41.739" height="44.438"/>
		<path fill="#E7F432" d="M583.934,802.713v-45.017V713.31v-44.442v-44.39v-44.387h-41.79h-42.083h-41.794h-41.735v44.387v44.39
			v44.442h41.735v44.387v45.017v44.39h41.794h42.083h41.79V802.713z M458.267,624.478h41.794h42.083v44.39h-42.083h-41.794V624.478z
			 M500.061,802.713v-45.017V713.31h42.083v44.387v45.017H500.061z"/>
		<polygon fill="#E7F432" points="416.531,1069.15 374.74,1069.15 374.74,1114.166 333.002,1114.166 291.211,1114.166 
			291.211,1158.557 333.002,1158.557 374.74,1158.557 416.531,1158.557 416.531,1114.166 458.267,1114.166 500.061,1114.166 
			500.061,1069.15 458.267,1069.15 		"/>
		<polygon fill="#E7F432" points="416.531,179.809 458.267,179.809 458.267,134.789 416.531,134.789 374.74,134.789 374.74,179.809 
					"/>
		<polygon fill="#E7F432" points="333.002,1024.76 333.002,980.321 291.211,980.321 291.211,935.932 249.476,935.932 
			207.682,935.932 165.6,935.932 165.6,980.321 207.682,980.321 207.682,1024.76 249.476,1024.76 291.211,1024.76 291.211,1069.15 
			333.002,1069.15 374.74,1069.15 374.74,1024.76 		"/>
		<rect x="333.002" y="90.402" fill="#E7F432" width="41.738" height="44.387"/>
		<rect x="291.211" y="179.809" fill="#E7F432" width="41.791" height="44.387"/>
		<rect x="249.476" y="268.638" fill="#E7F432" width="41.735" height="44.387"/>
		<polygon fill="#E7F432" points="291.211,179.809 291.211,134.789 249.476,134.789 249.476,90.402 207.682,90.402 165.6,90.402 
			123.809,90.402 123.809,134.789 165.6,134.789 207.682,134.789 207.682,179.809 249.476,179.809 		"/>
		<polygon fill="#E7F432" points="207.682,713.31 249.476,713.31 291.211,713.31 333.002,713.31 374.74,713.31 374.74,668.868 
			333.002,668.868 333.002,624.478 291.211,624.478 291.211,580.091 249.476,580.091 207.682,580.091 165.6,580.091 
			123.809,580.091 123.809,624.478 82.073,624.478 40.279,624.478 40.279,668.868 40.279,713.31 82.073,713.31 123.809,713.31 
			165.6,713.31 		"/>
		<polygon fill="#E7F432" points="207.682,357.414 249.476,357.414 249.476,313.024 207.682,313.024 165.6,313.024 165.6,357.414 		
			"/>
		<polygon fill="#E7F432" points="207.682,224.195 207.682,179.809 165.6,179.809 123.809,179.809 123.809,224.195 165.6,224.195 		
			"/>
		<rect x="123.809" y="268.638" fill="#E7F432" width="41.791" height="44.387"/>
	</g>
	<g>
		<path fill="#343434" d="M834.52,847.103v44.442h-41.795v44.387h-41.731h-41.794v44.39v44.438v44.391v45.016h41.794h41.731h41.795
			h42.082v-45.016v-44.391v-44.438v-44.39v-44.387v-44.442H834.52z M834.52,1024.76v44.391h-41.795v-44.391v-44.438h41.795V1024.76z
			"/>
		<rect x="583.934" y="446.243" fill="#343434" width="41.739" height="45.017"/>
		<polygon fill="#343434" points="583.934,179.809 542.144,179.809 500.061,179.809 458.267,179.809 416.531,179.809 
			374.74,179.809 333.002,179.809 333.002,224.195 374.74,224.195 416.531,224.195 458.267,224.195 458.267,268.638 
			500.061,268.638 500.061,224.195 542.144,224.195 542.144,268.638 542.144,313.024 500.061,313.024 458.267,313.024 
			416.531,313.024 374.74,313.024 333.002,313.024 333.002,268.638 333.002,224.195 291.211,224.195 291.211,268.638 
			291.211,313.024 249.476,313.024 249.476,357.414 207.682,357.414 165.6,357.414 165.6,313.024 123.809,313.024 123.809,357.414 
			123.809,401.856 165.6,401.856 165.6,446.243 207.682,446.243 207.682,401.856 249.476,401.856 291.211,401.856 291.211,357.414 
			333.002,357.414 333.002,401.856 374.74,401.856 374.74,357.414 416.531,357.414 458.267,357.414 458.267,401.856 
			416.531,401.856 374.74,401.856 374.74,446.243 416.531,446.243 458.267,446.243 500.061,446.243 500.061,491.259 
			542.144,491.259 542.144,446.243 583.934,446.243 583.934,401.856 542.144,401.856 500.061,401.856 500.061,357.414 
			542.144,357.414 583.934,357.414 583.934,401.856 625.673,401.856 625.673,357.414 625.673,313.024 583.934,313.024 
			583.934,268.638 583.934,224.195 625.673,224.195 625.673,179.809 625.673,134.789 583.934,134.789 		"/>
		<polygon fill="#343434" points="583.934,45.96 542.144,45.96 542.144,90.402 542.144,134.789 583.934,134.789 583.934,90.402 		
			"/>
		<polygon fill="#343434" points="500.061,1.574 458.267,1.574 416.531,1.574 374.74,1.574 333.002,1.574 291.211,1.574 
			249.476,1.574 207.682,1.574 207.682,45.96 165.6,45.96 123.809,45.96 123.809,90.402 165.6,90.402 207.682,90.402 
			249.476,90.402 249.476,45.96 291.211,45.96 333.002,45.96 374.74,45.96 416.531,45.96 458.267,45.96 500.061,45.96 
			542.144,45.96 542.144,1.574 		"/>
		<polygon fill="#343434" points="249.476,313.024 249.476,268.638 249.476,224.195 207.682,224.195 165.6,224.195 165.6,268.638 
			165.6,313.024 207.682,313.024 		"/>
		<rect x="123.809" y="134.789" fill="#343434" width="41.791" height="45.02"/>
		<polygon fill="#343434" points="123.809,224.195 123.809,179.809 82.073,179.809 82.073,224.195 82.073,268.638 82.073,313.024 
			123.809,313.024 123.809,268.638 		"/>
		<path fill="#343434" d="M40.279,980.321H-1.453v44.438v44.391v45.016v44.391v44.438v44.39h41.732v-44.39h41.794v-44.438h41.735
			v-44.391v-45.016v-44.391v-44.438H82.073H40.279z M82.073,1069.15v45.016H40.279v-45.016v-44.391h41.794V1069.15z"/>
	</g>
</g>
</svg>
